<?xml version="1.0" encoding="utf-8"?>
<!-- Generator: Adobe Illustrator 17.0.0, SVG Export Plug-In . SVG Version: 6.00 Build 0)  -->
<!DOCTYPE svg PUBLIC "-//W3C//DTD SVG 1.1//EN" "http://www.w3.org/Graphics/SVG/1.1/DTD/svg11.dtd">
<svg version="1.1" id="Layer_1" xmlns="http://www.w3.org/2000/svg" xmlns:xlink="http://www.w3.org/1999/xlink" x="0px" y="0px"
	 viewBox="0 0 1264 736" enable-background="new 0 0 1264 736" xml:space="preserve">
<circle fill="#074F68" cx="624.641" cy="367.411" r="367.54"/>
<g>
	<circle opacity="0.6" fill="#048CB9" enable-background="new    " cx="337.318" cy="174.131" r="3.06"/>
	<circle opacity="0.6" fill="#048CB9" enable-background="new    " cx="608.606" cy="214.926" r="3.06"/>
	<circle opacity="0.6" fill="#048CB9" enable-background="new    " cx="744.25" cy="112.938" r="3.06"/>
	<circle opacity="0.6" fill="#048CB9" enable-background="new    " cx="879.894" cy="174.131" r="3.06"/>
	<circle opacity="0.6" fill="#048CB9" enable-background="new    " cx="472.962" cy="153.733" r="3.06"/>
	<circle opacity="0.6" fill="#048CB9" enable-background="new    " cx="398.511" cy="274.079" r="3.06"/>
	<circle opacity="0.6" fill="#048CB9" enable-background="new    " cx="669.799" cy="314.874" r="3.06"/>
	<circle opacity="0.6" fill="#048CB9" enable-background="new    " cx="805.443" cy="212.886" r="3.06"/>
	<circle opacity="0.6" fill="#048CB9" enable-background="new    " cx="941.086" cy="274.079" r="3.06"/>
	<circle opacity="0.6" fill="#048CB9" enable-background="new    " cx="534.155" cy="253.681" r="3.06"/>
	<g opacity="0.6">
		<circle opacity="0.05" fill="#FFFFFF" enable-background="new    " cx="862.009" cy="128.958" r="11.19"/>
		<circle fill="#9FD1E6" cx="862.009" cy="128.958" r="3.957"/>
	</g>
	<g opacity="0.6">
		<circle opacity="0.05" fill="#FFFFFF" enable-background="new    " cx="853.897" cy="207.061" r="22.937"/>
		<circle fill="#9FD1E6" cx="853.897" cy="207.061" r="8.112"/>
		<circle opacity="0.1" fill="#FFFFFF" enable-background="new    " cx="853.897" cy="207.41" r="14.476"/>
	</g>
	<g opacity="0.6">
		<circle opacity="0.05" fill="#FFFFFF" enable-background="new    " cx="636.265" cy="196.597" r="11.19"/>
		<circle fill="#9FD1E6" cx="636.265" cy="196.597" r="3.957"/>
	</g>
	<g opacity="0.6">
		<circle opacity="0.05" fill="#FFFFFF" enable-background="new    " cx="610.393" cy="186.174" r="4.398"/>
		<circle fill="#9FD1E6" cx="610.393" cy="186.174" r="1.554"/>
	</g>
	<g opacity="0.6">
		<circle opacity="0.05" fill="#FFFFFF" enable-background="new    " cx="822.919" cy="168.509" r="13.744"/>
		<circle fill="#9FD1E6" cx="822.919" cy="168.509" r="4.861"/>
	</g>
</g>
<g>
	<circle opacity="0.6" fill="#048CB9" enable-background="new    " cx="923.111" cy="367.136" r="3.06"/>
	<circle opacity="0.6" fill="#048CB9" enable-background="new    " cx="649.016" cy="378.673" r="3.06"/>
	<circle opacity="0.6" fill="#048CB9" enable-background="new    " cx="535.241" cy="504.595" r="3.06"/>
	<circle opacity="0.6" fill="#048CB9" enable-background="new    " cx="390.436" cy="470.313" r="3.06"/>
	<circle opacity="0.6" fill="#048CB9" enable-background="new    " cx="793.821" cy="412.955" r="3.06"/>
	<circle opacity="0.6" fill="#048CB9" enable-background="new    " cx="844.028" cy="280.648" r="3.06"/>
	<circle opacity="0.6" fill="#048CB9" enable-background="new    " cx="569.933" cy="292.186" r="3.06"/>
	<circle opacity="0.6" fill="#048CB9" enable-background="new    " cx="456.159" cy="418.107" r="3.06"/>
	<circle opacity="0.6" fill="#048CB9" enable-background="new    " cx="311.354" cy="383.825" r="3.06"/>
	<circle opacity="0.6" fill="#048CB9" enable-background="new    " cx="714.739" cy="326.467" r="3.06"/>
	<g opacity="0.6">
		<circle opacity="0.05" fill="#FFFFFF" enable-background="new    " cx="416.584" cy="511.26" r="11.19"/>
		<circle fill="#9FD1E6" cx="416.584" cy="511.26" r="3.957"/>
	</g>
	<g opacity="0.6">
		<circle opacity="0.05" fill="#FFFFFF" enable-background="new    " cx="409.696" cy="433.04" r="22.937"/>
		<circle fill="#9FD1E6" cx="409.696" cy="433.04" r="8.112"/>
		<circle opacity="0.1" fill="#FFFFFF" enable-background="new    " cx="409.63" cy="432.698" r="14.476"/>
	</g>
	<g opacity="0.6">
		<circle opacity="0.05" fill="#FFFFFF" enable-background="new    " cx="625.347" cy="401.928" r="11.19"/>
		<circle fill="#9FD1E6" cx="625.347" cy="401.928" r="3.957"/>
	</g>
	<g opacity="0.6">
		<circle opacity="0.05" fill="#FFFFFF" enable-background="new    " cx="652.729" cy="407.241" r="4.398"/>
		<circle fill="#9FD1E6" cx="652.729" cy="407.241" r="1.554"/>
	</g>
	<g opacity="0.6">
		<circle opacity="0.05" fill="#FFFFFF" enable-background="new    " cx="447.44" cy="464.997" r="13.744"/>
		<circle fill="#9FD1E6" cx="447.44" cy="464.997" r="4.861"/>
	</g>
	<circle opacity="0.6" fill="#048CB9" enable-background="new    " cx="664.301" cy="655.315" r="2.215"/>
	<circle opacity="0.6" fill="#048CB9" enable-background="new    " cx="559.454" cy="630.493" r="2.215"/>
	<circle opacity="0.6" fill="#048CB9" enable-background="new    " cx="607.041" cy="592.693" r="2.215"/>
	<circle opacity="0.6" fill="#048CB9" enable-background="new    " cx="502.193" cy="567.87" r="2.215"/>
	<g opacity="0.6">
		<circle opacity="0.05" fill="#FFFFFF" enable-background="new    " cx="498.679" cy="660.141" r="8.102"/>
		<circle fill="#9FD1E6" cx="498.679" cy="660.141" r="2.865"/>
	</g>
	<g opacity="0.6">
		<circle opacity="0.05" fill="#FFFFFF" enable-background="new    " cx="621.389" cy="515.218" r="16.608"/>
		<circle fill="#9FD1E6" cx="621.389" cy="515.218" r="5.874"/>
		<circle opacity="0.1" fill="#FFFFFF" enable-background="new    " cx="621.341" cy="514.97" r="10.482"/>
	</g>
	<g opacity="0.6">
		<circle opacity="0.05" fill="#FFFFFF" enable-background="new    " cx="521.021" cy="626.644" r="9.951"/>
		<circle fill="#9FD1E6" cx="521.021" cy="626.644" r="3.519"/>
	</g>
</g>
<g>
	<g>
		<defs>
			<circle id="SVGID_1_" cx="625.969" cy="368.739" r="367.54"/>
		</defs>
		<clipPath id="SVGID_2_">
			<use xlink:href="#SVGID_1_"  overflow="visible"/>
		</clipPath>
	</g>
</g>
<g>
	<path fill="#425356" d="M931.953,519.53c0,0,18.155-22.141,43.396,5.757c25.241,27.897,67.308-3.543,69.522,47.824
		s-64.651,34.982-70.851,26.569C967.821,591.266,916.454,541.671,931.953,519.53z"/>
	<path fill="#627377" d="M932.617,522.076c0,0,26.237,1.993,37.529,19.927s59.78,19.927,62.769,12.952s-7.639-11.292-17.602-11.956
		c-9.963-0.664-28.562-1.661-40.186-12.952C963.503,518.755,951.88,506.135,932.617,522.076z"/>
	<path fill="#DDDDDC" d="M740.656,534.143c0,0-52.695-7.971-74.836,15.941c0,0-25.683,17.713-18.155,63.323
		c0,0,41.625,16.827,83.692,13.727c0,0,1.771-20.812-4.428-34.097c0,0,30.554,1.771,44.724-1.771S740.656,534.143,740.656,534.143z"
		/>
	<path fill="#F3F3F3" d="M743.977,553.959c0,0-23.082-2.008-31.717,13.27c0,0,12.786,53.153-33.709,46.179
		c-43.507-7.306-27.897-41.846-27.897-41.846s6.31-21.255,16.938-23.58c0,0,13.949-22.03,73.065-13.838L743.977,553.959z"/>
	<path fill="#DDDDDC" d="M859.331,598.351c0,0,67.751,60.666,96.091,47.381s21.255-15.056,27.012-27.897
		c5.757-12.842,6.199-83.692-50.038-92.991S859.331,598.351,859.331,598.351z"/>
	<path fill="#C8C8C8" d="M914.683,560.712c0,0,44.724,28.783,47.824,56.238c0,0,13.285-41.846-34.895-73.753L914.683,560.712z"/>
	<path fill="#627377" d="M648.107,338.639c1.993-6.864,9.299-27.455,1.55-40.518c-7.749-13.063-27.676-6.642-19.705,2.878
		c0,0,0.443,2.878,0,4.871c0,0-0.611-1.696-1.715-4.308c-0.917-1.712-2.067-3.254-3.009-4.957c-1.147-2.073-2.087-4.322-3.469-6.253
		c-2.911-4.068-6.617-7.185-9.81-10.95c-2.704-3.187-3.636-7.389-6.804-10.273c-2.557-2.327-5.585-3.808-8.642-5.308
		c-2.659-0.696-5.646-1.06-8.84-0.684c-14.554,1.712-18.155,19.041-5.535,19.484c0,0,10.074,8.137,10.904,21.255
		c-7.255-5.205-24.269-20.884-38.738-16.819c1.34,2.017,2.032,5.126,2.5,7.202c0.674,2.994,2.206,5.71,3.229,8.593
		c0.077,0.216,0.16,0.445,0.246,0.68c0.151-0.112,0.347-0.172,0.575-0.136c5.465,0.868,6.9,6.059,7.176,10.886
		c0.023,0.404-0.348,0.716-0.727,0.727c-0.104,0.003-0.202-0.009-0.304-0.011c-0.048,0.056-0.08,0.115-0.139,0.169
		c0,0-17.934,1.771-24.134,11.292c-6.199,9.521-0.443,12.62-0.443,12.62s-4.871,3.93-4.871,9.465s4.276,7.408,10.628,11.126
		c6.808,3.985,17.602,5.978,20.425,1.328c0.332,2.491,1.052,3.764,1.052,3.764s5.314,17.491,22.584,17.27
		c17.27-0.221,58.23-27.676,58.23-27.676S646.115,345.503,648.107,338.639z"/>
	<path fill="#AAB4B6" d="M592.534,398.364l-4.317-10.462c0,0,16.44-36.2,66.589-33.875l5.148,7.14L592.534,398.364z"/>
	<path fill="#8D979A" d="M592.534,396.87c0,0,12.62-41.625,66.865-36.311c0,0,5.092,5.092-2.214,8.192
		C649.879,371.851,591.648,411.261,592.534,396.87z"/>
	<path fill="#DDDDDC" d="M596.741,395.984c0,0,12.595-35.979,59.325-32.326l34.995,47.381c0,0,35.647,13.395,45.942,13.395
		c0,0,21.592,22.053,7.973,62.338c0,0-47.384,6.077-79.156-8.868C665.82,477.905,615.228,436.945,596.741,395.984z"/>
	<g>
		<path fill="#F3F3F3" d="M748.426,459.565c0.029,0.058,0.122-0.045,0.181-0.07c0-0.001-0.001-0.002-0.001-0.003
			c0.017-0.005,0.034-0.01,0.05-0.016c0.469-0.197,0.949-0.364,1.424-0.544c-0.315-2.125-0.764-3.939-1.274-5.231
			c-1.018-2.581-1.805-5.48-2.646-8.549c-1.584-5.775-3.961-14.502-7.231-14.634c-11.753-0.473-43.832-11.948-47.455-13.255
			c-0.886-0.319-1.628-0.812-2.308-1.447c-11.957-11.168-29.41-37.311-35.223-46.158c-0.862-0.028-2.292-0.042-2.292-0.042h-0.27
			c-19.315,0.002-31.651,7.494-39.07,14.807c4.222,6.607,33.882,52.033,63.17,70.9c0,0,42.555,6.529,72.317,3.321
			C747.836,458.613,747.963,458.643,748.426,459.565z"/>
	</g>
	<path fill="#DDDDDC" d="M741.301,486.872c-3.285-8.423-15.997-46.763,17.232-63.695l-3.794-0.848c0,0-35.455,12.798-16.47,64.543
		H741.301z"/>
	<path fill="#028CB9" d="M921.768,353.917c0,0,20.812,30.112,22.584,108.047c1.177,51.798-23.469,134.173-115.132,143.473
		c-91.663,9.299-100.519-81.035-81.035-134.173c0,0-1.771-21.255-10.628-44.282C729.078,404.936,908.926,333.104,921.768,353.917z"
		/>
	<path fill="#DDDDDC" d="M724.184,421.149c0,0-36.224,14.351-15.854,66.351h3.1c0,0-20.898-46.348,16.549-65.43L724.184,421.149z"/>
	<path fill="#1BAEE5" d="M910.698,450.008l-14.447-55.463l-6.269-16.274l-2.581,1.856c0,0,12.383,16.072,19.311,64.234
		c6.864,47.713,2.456,75.462-21.698,107.272c-19.766,26.032-42.212,33.89-54.36,36.259c-2.411,0.719-4.879,1.567-7.375,2.16
		l2.296,1.646c28.626-2.943,51.081-21.467,62.207-38.239s22.584-35.37,24.576-59.946
		C914.351,468.938,910.698,450.008,910.698,450.008z"/>
	<path fill="#128FA4" d="M894.756,375.615c0,0-20.093,21.67-7.805,45.582s16.772,25.158,28.728,26.818
		C927.635,449.676,894.756,375.615,894.756,375.615z"/>
	<path fill="#626D70" d="M718.072,416.409l7.085,11.015c0,0,45.61,15.499,108.158-14.945c54.754-26.65,92.327-63.434,92.327-63.434
		l-2.103-13.949L718.072,416.409z"/>
	<path fill="#047499" d="M889.982,378.271c0,0,25.365,57.123,22.708,104.948c-2.657,47.824-18.045,95.716-57.179,115.941
		l-2.934,1.959c0,0,99.08-16.716,92.217-157.311c-6.532-74.504-22.473-91.608-22.473-91.608S905.273,367.035,889.982,378.271z"/>
	<path fill="#8D979A" d="M721.061,408.162c0,0-9.963,9.963,4.65,12.288c14.613,2.325,59.448,8.635,108.601-17.602
		s89.338-58.784,89.338-66.422s-10.296-7.971-10.296-7.971L721.061,408.162z"/>
	<g opacity="0.5">
		<path fill="#425356" d="M911.362,335.429c-7.971-20.591-22.584-56.791-63.766-123.878s-70.408-80.371-144.801-36.532
			s-56.459,81.7-29.226,131.517s54.466,103.951,54.466,103.951s47.492,12.952,106.276-19.595
			C893.096,358.345,911.362,335.429,911.362,335.429z"/>
		<path fill="#627377" d="M772.341,149.595c29.332,0,50.057,20.907,75.255,61.956c41.182,67.087,55.795,103.287,63.766,123.878
			c0,0-18.266,22.916-77.05,55.463c-32.732,18.123-61.963,22.139-81.443,22.139c-15.504,0-24.833-2.544-24.833-2.544
			s-27.233-54.134-54.466-103.951s-45.167-87.678,29.226-131.517C731.669,158.004,753.735,149.595,772.341,149.595 M772.341,144.281
			c-19.262,0-41.543,8.068-72.243,26.159c-36.083,21.263-53.664,42.788-55.327,67.741c-1.472,22.087,9.56,44.239,24.136,70.902
			c26.876,49.163,54.11,103.25,54.382,103.79l1.064,2.115l2.285,0.623c0.409,0.112,10.199,2.731,26.231,2.731
			c19.539,0,49.976-3.956,84.017-22.804c59.029-32.683,77.859-55.83,78.632-56.799l1.901-2.385l-1.101-2.845
			c-6.86-17.721-21.134-54.596-64.192-124.74c-14.049-22.887-25.502-37.571-37.134-47.614
			C801.837,149.801,787.886,144.281,772.341,144.281L772.341,144.281z"/>
	</g>
	<path fill="#425356" d="M705.674,320.041c0,0-16.606,12.703-38.746-1.467c0,0,19.705,38.885,49.817,21.172
		C716.744,339.746,710.544,324.912,705.674,320.041z"/>
	<path opacity="0.5" fill="#718688" enable-background="new    " d="M789.31,152.269c0,0,2.657,19.539,2.159,31.606l-74.172,175.798
		l-10.296,9.631l-26.237-49.374c0,0-23.137-41.071-27.012-55.573c-3.875-14.502-11.901-40.02,19.982-68.913
		c25.739-22.75,56.625-35.536,67.917-39.687C752.944,151.605,775.03,146.125,789.31,152.269z"/>
	<path fill="#627377" d="M695.635,340.04c7.069,0.104,12.843-2.853,18.189-6.717c-2.241-4.634-5.406-10.539-8.15-13.283
		c0,0-16.606,12.703-38.746-1.467c0,0,4.211,7.978,11.458,15.63C689.169,344.37,688.905,339.941,695.635,340.04z"/>
	<path fill="#707171" d="M696.844,323.509c-6.058,1.683-4.24,8.778-1.89,12.881c2.229,3.892,5.802,6.777,9.958,7.615
		c3.703-0.471,7.652-1.8,11.832-4.259c0,0-6.199-14.834-11.07-19.705c0,0-3.125,2.242-8.607,3.355
		C697.001,323.441,696.934,323.485,696.844,323.509z"/>
	<path fill="#919B9E" d="M696.844,323.509c-6.058,1.683-4.24,8.778-1.89,12.881c0.757,1.321,1.673,2.522,2.709,3.572
		c6.156-0.428,11.338-3.153,16.161-6.639c-2.241-4.634-5.406-10.539-8.15-13.283c0,0-3.125,2.242-8.607,3.355
		C697.001,323.441,696.934,323.485,696.844,323.509z"/>
	<g>
		<path fill="#E9F6FD" d="M867.321,253.159c0.618,1.076,1.236,2.171,1.855,3.283C868.557,255.326,867.939,254.237,867.321,253.159z"
			/>
		<path fill="#E9F6FD" d="M870.349,258.582c0.457,0.839,0.914,1.673,1.372,2.533C871.263,260.254,870.806,259.423,870.349,258.582z"
			/>
		<path fill="#E9F6FD" d="M864.588,248.493c0.726,1.209,1.453,2.449,2.181,3.705C866.04,250.939,865.313,249.702,864.588,248.493z"
			/>
		<path fill="#F4FAFD" d="M781.838,408.494c-14.945-8.635,1.328-18.266-7.639-29.226c0,0,57.788-5.978,67.751-31.551
			c0,0,1.887,0.452,6.718,3.95c0.366-0.633,3.011-0.863,3.357-1.514c11.44-21.553,5.372-46.788,1.55-69.522
			c-0.096-0.569,3.669-1.852,0-1.107c0.869-7.802-0.021-14.734,3.941-21.607c1.973-3.423,4.394-6.537,7.071-9.426
			c-50.644-73.029-61.935-72.586-61.935-72.586c2.657,7.971,2.214,21.255,2.214,21.255c-15.056-21.698-32.326-19.484-32.326-19.484
			c2.214,4.871,2.214,11.956,2.214,11.956c-15.499-14.17-46.939-10.185-46.939-10.185c11.513,17.27,14.17,43.839,14.17,43.839
			c-20.369-18.156-53.138-11.513-53.138-11.513l1.771,6.642c-7.528-1.328-11.735,0.443-11.735,0.443
			c15.941,12.842,19.263,42.068,19.263,42.068c-20.37-5.314-38.968,2.657-38.968,2.657s15.941,19.484,32.768,49.596
			c26.9,44.018,44.783,91.004,46.425,98.554C747.498,412.508,765.583,411.165,781.838,408.494z"/>
		<path fill="#D4EEFB" d="M869.176,256.441c0.391,0.704,0.781,1.422,1.172,2.141C869.958,257.865,869.567,257.144,869.176,256.441z"
			/>
		<polygon fill="#D4EEFB" points="864.586,248.49 864.586,248.49 864.587,248.492 		"/>
		<path fill="#D4EEFB" d="M871.721,261.115c0.889,1.673,1.778,3.372,2.666,5.124C873.498,264.487,872.609,262.785,871.721,261.115z"
			/>
		<path fill="#D4EEFB" d="M866.768,252.198c0.184,0.319,0.369,0.638,0.553,0.96C867.137,252.837,866.953,252.516,866.768,252.198z"
			/>
		<path fill="#DFECF2" d="M850.569,280.047c0.386-0.245,0.954-0.179,1.049,0.39c3.822,22.735,9.57,47.761-1.87,69.314
			c-0.346,0.651-0.714,1.283-1.08,1.916c4.876,3.531,13.32,15.534,6.678,25.276c18.493-11.777,41.052-27.496,50.3-36.099
			c1.037-1.281,1.509-1.983,1.509-1.983s-1.328-10.628-32.768-72.622c-0.888-1.751-1.777-3.451-2.666-5.124
			c-0.458-0.86-0.915-1.694-1.372-2.533c-0.391-0.718-0.782-1.437-1.172-2.141c-0.619-1.112-1.237-2.207-1.855-3.283
			c-0.184-0.322-0.369-0.642-0.553-0.96c-0.728-1.256-1.455-2.497-2.181-3.705c0,0-0.001-0.002-0.002-0.003
			c-2.677,2.889-5.097,6.003-7.071,9.426C853.553,264.79,851.438,272.245,850.569,280.047z"/>
		<path fill="#4E4D50" d="M819.079,397.225c0.023-0.011,0.047-0.022,0.07-0.033"/>
	</g>
	<path fill="#DFECF2" d="M834.003,216.067c5.51,8.303,8.204,18.375,9.87,28.301c4.694-2.013,9.073-4.627,13.327-7.455
		c-18.583-27.317-43.219-54.858-50.565-59.012C814.315,183.925,828.752,208.155,834.003,216.067z"/>
	<path fill="#425356" d="M835.862,242.327c0,0-7.528,25.241,23.026,45.61l-3.1-15.499c0,0,44.724-24.355,12.399-86.792
		C868.187,185.646,866.416,229.042,835.862,242.327z"/>
	<path fill="#627377" d="M852.279,281.985c-1.688-3.213-3.836-7.25-3.442-11.02c0.413-3.955,3.401-5.978,6.216-8.45
		c4.956-4.353,9.01-9.109,12.839-14.466c12.696-17.764,9.528-43.169,0.263-61.844c-0.328,5.055-3.757,43.715-32.293,56.122
		c0,0-6.556,22.015,17.466,41.517C852.973,283.227,852.61,282.615,852.279,281.985z"/>
	<path fill="#707171" d="M868.198,261.484c-5.47,0.621-10.861-0.569-14.485-5.615c-5.125-7.136-7.392-15.939-3.614-23.615
		c-3.866,4.084-8.552,7.6-14.237,10.072c0,0-7.528,25.241,23.026,45.61l-3.1-15.499
		C855.788,272.438,862.053,269.026,868.198,261.484z"/>
	<path fill="#919B9E" d="M855.053,262.514c1.022-0.897,1.997-1.817,2.948-2.75c-1.589-0.908-3.046-2.166-4.288-3.895
		c-5.133-7.147-7.4-15.967-3.597-23.651c-3.872,4.095-8.555,7.63-14.254,10.108c0,0-6.556,22.015,17.466,41.517
		c-0.355-0.617-0.718-1.229-1.049-1.859c-1.688-3.213-3.836-7.25-3.442-11.02C849.25,267.009,852.238,264.987,855.053,262.514z"/>
	<path fill="#DFECF2" d="M724.44,362.402c1.877,8.949,9.131,15.002,16.202,13.519c7.072-1.482,13.061-10.521,11.183-19.472
		c-1.876-8.951-10.907-14.421-17.978-12.939C726.774,344.993,722.563,353.452,724.44,362.402z"/>
	<path fill="#DFECF2" d="M774.09,338.519c1.855,8.841,10.002,14.737,16.987,13.272c6.986-1.464,12.605-10.394,10.749-19.236
		c-1.854-8.842-10.477-14.247-17.462-12.782C777.376,321.236,772.235,329.677,774.09,338.519z"/>
	<path fill="#FFFFFF" d="M772.761,335.672c1.826,8.705,10.295,13.975,17.174,12.532s12.088-10.09,10.264-18.795
		c-1.827-8.705-9.996-14.172-16.875-12.729C776.446,318.124,770.936,326.966,772.761,335.672z"/>
	<path fill="#FFFFFF" d="M723.447,359.287c1.848,8.811,10.421,14.448,17.384,12.987c6.964-1.461,12.538-10.213,10.691-19.025
		c-1.849-8.811-10.42-14.346-17.383-12.884C727.177,341.826,721.599,350.475,723.447,359.287z"/>
	<path fill="#425356" d="M774.495,321.624c0.068,0.539,0.179,1.084,0.365,1.626c1.166,0.223,1.209-1.278,2.993-2.102
		c1.584-0.734,2.657-0.332,3.722,0.064c1.602,1.228,3.014,3.224,3.881,5.749c1.801,5.227,0.578,10.704-2.723,12.231
		c-3.302,1.529-7.44-1.47-9.237-6.702C772.057,328.31,772.553,323.978,774.495,321.624z"/>
	<path opacity="0.6" fill="#FFFFFF" enable-background="new    " d="M782.316,325.448c0.892,2.502-0.123,5.393-2.268,6.457
		s-4.607-0.102-5.499-2.604s0.123-5.393,2.268-6.457S781.424,322.946,782.316,325.448z"/>
	<path fill="#BDDAE4" d="M738.663,315.502c0,0-23.58-3.321-30.886,8.967c0,0-4.318-13.617,8.635-18.598
		S738.663,315.502,738.663,315.502z"/>
	<path fill="#BDDAE4" d="M757.926,295.243c0,0,4.65-19.595,20.591-25.241s21.255-1.328,21.255-1.328s-6.642-11.624-23.912-8.967
		C758.59,262.364,752.612,285.944,757.926,295.243z"/>
	<path fill="#425356" d="M729.327,341.551c0.068,0.539,0.179,1.084,0.365,1.626c0.972,2.83,2.039-0.448,3.823-1.271
		c1.584-0.734,3.439,1.744,2.892-0.766c1.602,1.228,3.014,3.224,3.881,5.749c1.801,5.227,0.578,10.704-2.723,12.231
		c-3.302,1.529-7.44-1.47-9.237-6.702C726.89,348.237,727.386,343.905,729.327,341.551z"/>
	<path opacity="0.6" fill="#FFFFFF" enable-background="new    " d="M737.065,346.512c0.844,2.392-0.212,5.19-2.359,6.249
		s-4.571-0.021-5.415-2.413s0.212-5.19,2.359-6.249S736.221,344.12,737.065,346.512z"/>
	<path fill="#707171" d="M819.63,309.27c-48.141,1.403-56.833,12.985-56.833,12.985l0.014-0.003
		c-5.083,3.971-4.501,7.651-7.32,8.637c-4.428,1.55-9.052-0.497-20.812,4.428c-25.905,10.849-27.897,24.576-27.897,24.576
		c0.664,2.878,3.321,7.306,6.668,8.85c3.347,1.543,6.174,10.413,10.381,13.955c4.207,3.543,11.292,2.657,23.248-1.771
		s13.728-10.185,14.392-14.613s-3.1-19.041-3.1-19.041c2.436-1.993,5.925-2.045,5.925-2.045s3.084,4.104,6.418,8.783
		s6.477,10.532,11.348,10.089c4.871-0.443,14.834-2.435,31.661-9.742c16.827-7.306,14.17-16.384,14.17-16.384l-4.871-21.477
		c5.092-0.886,22.584-0.443,22.584-0.443l0.221-6.199C840.997,308.418,831.113,308.364,819.63,309.27z M742.87,376.943
		c-10.849,3.542-16.606,3.542-19.927-2.657s-7.528-14.834-7.528-14.834s13.063-19.705,35.868-19.484c0,0,4.65,15.72,4.871,22.362
		C756.376,368.972,753.719,373.4,742.87,376.943z M802.65,353.031c-19.263,6.642-19.958,6.816-23.374,2.965
		s-12.051-14.921-14.265-20.899s11.513-12.399,21.698-15.056s22.805-3.764,29.447-2.657l5.757,22.805
		C821.913,340.189,821.913,346.389,802.65,353.031z"/>
	<path fill="#737F82" d="M756.144,363.836c-0.239,5.815-3.269,9.84-13.274,13.107c-8.622,2.815-14.021,3.38-17.544,0.387
		c0.865,1.284,1.852,2.446,3.336,3.133c1.43,0.661,2.871,1.024,4.32,1.2c3.117-0.036,6.298-1.024,9.118-2.155
		c3.71-1.487,10.268-3.679,12.457-7.263C755.85,370.13,756.336,366.952,756.144,363.836z"/>
	<path fill="#737F82" d="M781.055,357.724c0.699,0.927,1.47,1.63,2.3,2.156c8.887-0.838,17.504-3.078,25.618-7.037
		c5.121-2.499,11.432-5.849,15.007-10.745c-1.004-3.729-2.132-7.425-3.433-11.064c-1-2.799-1.948-5.769-3.117-8.603l4.483,17.758
		c0,0,0,6.199-19.263,12.842C787.008,358.425,783.61,359.553,781.055,357.724z"/>
	<path fill="#425356" d="M726.707,407.829c0,0,32.99,12.952,91.884-12.288c58.895-25.241,91.442-62.769,91.442-62.769l1.328,2.657
		c0,0-32.547,37.529-91.442,62.769c-58.895,25.241-91.884,12.288-91.884,12.288L726.707,407.829z"/>
	<path fill="#047499" d="M748.018,469.99c0,0,31.827-43.23,104.228-31.274c0,0-41.514-26.458-105.612,20.037L748.018,469.99z"/>
	<path fill="#047499" d="M757.078,482.283c0,0,26.515-29.866,65.151-27.115c15.518,1.13,24.039,0.264,29.166-0.179
		c0.85,2.215,1.522,4.538,1.522,4.538l-5.542,12.733c0,0-40.518-18.266-81.395,13.954c0,0-3.22,8.645-2.273,13.165
		c5.682-3.34,52.272-17.88,72.916-3.733c21.568,14.781,25,43.227-4.167,56.982c-29.166,13.754-60.227,9.038-74.62,0.786
		c0,0-1.886-2.477-2.273-3.537c-0.942-2.583-0.947-5.695-0.947-9.038c0,0,24.053,11.396,44.886,7.86
		c20.833-3.537,39.393-10.414,39.015-24.954c-0.379-14.54-21.969-33.796-85.984-7.467c0,0-1.326-1.572-2.273-3.537
		C750.029,507.093,752.249,494.809,757.078,482.283z"/>
	<path fill="#F3F3F3" d="M754.806,478.746c0,0,22.604-25.528,64.343-26.353c21.68-0.183,32.247,2.595,32.247,2.595l-4.995,13.236
		c0,0-40.65-15.338-82.693,14.452c0,0-3.22,8.645-2.273,13.165c5.682-3.34,52.272-17.88,72.916-3.733
		c21.568,14.781,25,43.227-4.167,56.982c-29.166,13.754-60.227,9.038-74.62,0.786c0,0-3.22-7.859-3.22-12.575
		c0,0,24.053,11.396,44.886,7.859s39.393-10.414,39.015-24.954s-21.969-33.796-85.984-7.467
		C750.26,512.739,748.366,495.448,754.806,478.746z"/>
	<path fill="#627377" d="M808.407,422.775l-13.284,3.653l1.328,14.945c0,0-39.854,28.894-26.569,87.013
		c4.156,18.181,9.807,32.153,16.19,42.954c4.89-0.021,9.77-0.255,14.648-0.564c0.288-0.752,0.799-1.38,1.28-2.026
		c-8.001-11.091-14.871-25.548-18.501-44.349c-10.628-59.116,27.897-85.353,27.897-85.353L808.407,422.775z"/>
	<path fill="#047499" d="M802.429,591.93c0,0-39.466,6.725-54.3-27.593c0,0,14.408,46.667,77.64,41.558L802.429,591.93z"/>
	<path fill="#8D979A" d="M808.407,422.775l-13.284,3.653l1.328,14.945c0,0-39.854,28.894-26.569,87.013
		c4.225,18.484,9.996,32.61,16.509,43.482c0.461,0.014,0.919,0.027,1.372,0.04c3.472,0.105,6.945,0.097,10.415-0.066
		c0.683-0.032,1.363-0.087,2.045-0.127c0.253-0.326,0.496-0.668,0.742-1.008c0.009-0.021,0.007-0.042,0.019-0.063
		c0.33-0.62,0.769-1.171,1.081-1.801c-8.06-11.114-14.916-25.534-18.567-44.443c-10.628-59.116,27.897-85.353,27.897-85.353
		L808.407,422.775z"/>
	<path fill="#626D70" d="M802.149,568.978c-8.067-11.119-14.997-25.654-18.651-44.577c-10.628-59.116,27.897-85.353,27.897-85.353
		l-2.989-16.273l-3.764,0.664l2.878,14.392c0,0-38.498,26.466-27.233,85.464c4.011,21.005,11.56,36.659,20.094,48.279
		C800.965,570.703,801.545,569.832,802.149,568.978z"/>
	<path fill="#F3F3F3" d="M787.144,488.423l-7.244,1.326c0,0-1.278,10.758-0.852,13.116l8.475-1.621L787.144,488.423z"/>
	<path fill="#F3F3F3" d="M791.679,468.654l-6.097,2.146c0,0,3.368-10.402,7.592-14.514c0,0,6.317-1.621,7.524-1.769
		C801.692,454.59,791.679,468.654,791.679,468.654z"/>
	<path fill="#066789" d="M911.362,441.97c0,0,16.623,9.709,33.773,10.423c0,0-0.161-12.977-1.69-22.073
		S911.362,441.97,911.362,441.97z"/>
	<path fill="#F3F3F3" d="M794.152,545.601c0,0-4.593,0.246-5.871,0.147c0,0,2.767,8.007,5.513,12.133c0,0,7.176-0.54,8.786-0.982
		C803.693,556.594,794.152,545.601,794.152,545.601z"/>
	<path fill="#DDDDDC" d="M1044.373,353.363c-2.325-22.418-24.576-19.761-24.576-19.761c-19.11-5.051-38.886-2.551-55.561,2.141
		c-22.675,10.575-44.463,22.875-63.931,38.599c-12.91,16.501-12.604,31.839-6.213,47.935c3.906,9.837,9.898,16.028,16.935,19.206
		c4.32,1.219,9.239-0.05,13.86-1.567c0.602-0.198,1.192-0.42,1.787-0.632c1.141-0.533,2.232-1.123,3.641-1.863
		c4.792-2.518,9.596-5.096,14.307-7.762c8.857-5.01,17.59-11.47,27.929-12.84c0.799-0.844,1.248-1.351,1.248-1.351
		c2.491,10.794,10.628,19.927,10.628,19.927l75.888-20.923C1063.303,374.12,1044.373,353.363,1044.373,353.363z"/>
	<path fill="#F3F3F3" d="M956.197,345.226c0,0,6.974,2.325,7.805,8.303c0.83,5.978-1.827,13.451-8.801,20.259
		c0,0,26.403-16.107,46.828-10.794c0,0-9.465,27.565,14.281,46.496c0,0,22.75-6.31,37.529-1.827c0,0,2.657-23.912-15.941-52.142
		c0,0,2.159-14.447-19.595-14.779C1018.302,340.743,992.895,331.444,956.197,345.226z"/>
	<path fill="#C8C8C8" d="M998.818,364.544c0,0-32.678,9.308-30.203,53.05c1.256-0.326,2.535-0.583,3.839-0.76l1.234-1.283
		C973.688,415.551,967.599,381.814,998.818,364.544z"/>
	<path fill="#FFFFFF" d="M956.086,345.282c0,0,36.4-14.848,62.26-5.321c0,0,21.653-1.543,19.439,15.284
		c0,0,17.934,19.705,16.163,50.703c0,0-1.55-27.012-19.705-49.817c0,0,5.757-12.177-17.713-14.17
		C1016.531,341.96,997.047,333.326,956.086,345.282z"/>
	<polygon fill="#128FA4" points="779.048,502.865 781.249,506.697 783.167,502.128 	"/>
	<path fill="#128FA4" d="M791.375,468.808c0,0-4.409,1.402-5.794,1.991l1.196,2.913L791.375,468.808z"/>
	<path fill="#128FA4" d="M800.162,557.391c0,0-5.682,0.442-6.368,0.491l3.598,3.267L800.162,557.391z"/>
	<path fill="#626D70" d="M1075.204,436.502l-3.321-11.513c0,0-1.993-18.377-38.746-14.17c-36.754,4.207-51.81,19.263-49.153,31.219
		C986.641,453.993,1075.204,436.502,1075.204,436.502z"/>
	<path fill="#425356" d="M985.976,436.723c0,0,25.019-34.54,73.508-18.598c21.587,6.974,31.551,60.112-15.609,64.098
		C996.715,486.208,980.22,446.022,985.976,436.723z"/>
	<path fill="#627377" d="M985.976,436.723c0,0-9.853,13.284-9.521,22.252c0.332,8.967-11.956,15.277,2.657,30.222
		s21.587,13.617,26.237,23.248s12.62,10.628,34.872,1.328c22.252-9.299,22.916-16.606,27.233-32.547
		c4.318-15.941,8.967-49.153-15.277-58.12C1027.933,414.14,1006.789,411.815,985.976,436.723z"/>
	<path fill="#576669" d="M1031.919,459.796c0,0,20.831,15.423,26.039,34.051C1057.958,493.847,1062.364,467.207,1031.919,459.796z"
		/>
	<path fill="#047499" d="M910.615,504.889c0,0-20.12,81.838-86.543,85.823c0,0,11.79,8.303,23.359,11.984
		c0,0,16.772-3.653,22.418-7.639c5.646-3.985,47.16-60.777,46.579-82.53C915.845,490.775,910.615,504.889,910.615,504.889z"/>
	<path fill="#1BAEE5" d="M747.598,469.99c0,0,15.902-21.477,47.902-29.447v0.72l-1.6,1.937c0,0-23.912,5.189-46.828,29.849
		L747.598,469.99z"/>
	<path fill="#1BAEE5" d="M811.064,437.637c0,0,24.41-3.404,41.182,1.079c0,0-30.305-2.159-42.178,1.328l1.328-0.996L811.064,437.637
		z"/>
	<path fill="#1BAEE5" d="M804.422,593.48c0,0-23.469,1.661-36.09-6.642c-12.62-8.303-16.716-15.167-16.716-15.167
		s15.993,15.627,28.23,18.156c11.652,2.408,12.952,2.076,22.833,2.076L804.422,593.48z"/>
	<path fill="#7B8A8D" d="M582.128,267.789c0,0-6.199,3.21-5.535,7.196c0.664,3.985,2.657,5.314,6.476,5.646
		s11.79-4.151,14.281-6.642s4.594-6.033-1.716-7.528S585.615,265.464,582.128,267.789z"/>
	<path fill="#627377" d="M554.966,301.769c0,0,5.931,1.301,10.869,7.137c7.27,21.873,21.475,1.603,26.533-5.526
		c-5.48-8.967-10.604-12.162-12.979-13.524c-3.284-1.884-5.371-5.179-8.957-6.662c-2.894-1.197-5.93-1.528-8.996-1.866
		c-2.48,0.224-5.137,0.833-7.744,2.136C541.815,289.399,544.076,305.273,554.966,301.769z"/>
	<path fill="#7B8A8D" d="M550.404,289.128c0,0-4.296,4.642-2.504,7.834c1.792,3.192,3.898,3.711,7.255,2.82
		s8.77-7.163,10.127-10.052s2.06-6.554-3.777-5.887S552.661,286.075,550.404,289.128z"/>
	<path fill="#7B8A8D" d="M592.745,291.29c0,0,3.11,8.104,3.443,11.758c0,0,17.27-4.982,24.41-4.816c0,0-4.65-12.454-10.794-15.277
		C609.804,282.955,604.247,288.998,592.745,291.29z"/>
	<path fill="#7B8A8D" d="M582.46,296.904c0,0,5.258,4.484,6.587,8.469c0,0-8.303,3.487-18.1,8.469c0,0-1.661-4.816-3.155-6.144
		C567.792,307.698,576.703,303.546,582.46,296.904z"/>
	<path fill="#7B8A8D" d="M624.417,302.993c-28.064-0.055-52.031,14.613-52.031,14.613s-1.771,8.69,6.864,15.997
		c5.294,4.479,4.096,8.769,2.377,11.42c0.002,0.014,0.01,0.024,0.011,0.038c0.601,7.726,10.952,5.703,16.701,3.132
		c6.109-28.114,27.739-29.037,27.739-29.037C630.229,307.365,624.417,302.993,624.417,302.993z"/>
	<path fill="#97A7A9" d="M572.386,317.606c0,0,24.908-15.499,52.031-14.613C624.417,302.993,599.287,306.757,572.386,317.606z"/>
	<path fill="#FFFFFF" d="M653.941,369.657c0,0-23.185-3.439-41.632,14.765c0,0,35.633,56.287,63.17,70.9
		c0,0-27.372-17.27-56.156-70.186C619.324,385.135,627.229,372.556,653.941,369.657z"/>
	<path fill="#FFFFFF" d="M648.661,591.598c0,0,2.325,18.488,24.466,21.145c22.141,2.657,35.425,3.543,40.961-24.134
		c3.764-15.277-1.827-21.381-1.827-21.381s9.244-14.155,29.171-13.38c0,0-21.919-3.875-32.658,12.177c0,0,4.871,8.192,1.993,20.812
		c-2.962,12.988-3.764,27.455-37.197,22.584C651.318,605.104,648.661,591.598,648.661,591.598z"/>
	<path fill="#7B8A8D" d="M1028.432,430.579c0-10.129-9.631-10.129-21.089-6.808c-9.02,2.614-16.064,8.711-18.662,11.194
		c-3.166,2.417-5.25,5.411-5.25,5.411c-8.967,12.288-6.974,20.923-6.974,20.923c1.328-3.321,7.639-13.949,17.602-16.938
		c-7.682,4.938-13.773,17.348-15.661,21.517c-1.196,2.198-2.09,4.249-2.273,5.716c-0.664,5.314,9.299,9.963,26.569,0.664
		c8.228-4.43,13.634-7.959,16.355-11.693c0.194-0.198,0.381-0.382,0.583-0.595c2.17-2.284,4.575-6.768,6.19-11.681
		C1027.872,443.806,1028.432,437.592,1028.432,430.579z"/>
	<path fill="#627377" d="M1008.505,445.192c0,0-4.929,0.929-7.51-0.296c-0.193-0.128-0.398-0.251-0.627-0.369
		c-6.476-3.321-13.949,4.317-13.949,4.317s-10.628,18.598-4.484,9.963c6.144-8.635,12.288-13.451,16.606-12.288
		c4.317,1.162,0.055,9.022,0.055,9.022s1.522-1.422,2.746-3.307C1001.94,451.589,1005.756,447.483,1008.505,445.192z"/>
	<path fill="#7B8A8D" d="M567.459,317.495c0,0-15.775,1.495-20.757,8.303s4.318,7.639,13.118,9.631s18.266,5.812,19.595,2.823
		c1.328-2.989-14.281-11.126-22.584-11.292c0,0,7.971-0.498,10.295,0.166C569.452,327.79,570.116,322.144,567.459,317.495z"/>
	<path fill="#7B8A8D" d="M544.599,341.407c0,0-1.661,1.439-2.704,3.557c-1.033,1.897-1.128,2.777,0.157,4.912
		c1.268,2.107,3.902,3.761,6.144,4.816c5.646,2.657,8.162,3.34,13.068,1.879c2.005-1.392,3.635-3.935,4.257-5.753
		C565.522,350.817,552.016,348.603,544.599,341.407z"/>
	<path fill="#97A7A9" d="M567.459,317.495c0,0-11.79,0.775-18.432,5.867s-4.096,8.635,0.554,9.853s27.344,7.86,29.558,5.646
		c0.996-0.886,0.111-1.882,0.111-1.882s-1.107,1.55-8.081-0.111c-6.974-1.661-15.499-4.317-19.263-5.535s-6.421-2.657-1.55-6.31
		S560.651,319.045,567.459,317.495z"/>
	<path fill="#7B8A8D" d="M630.753,318.148c-0.025,0.134-0.052,0.298-0.078,0.448c5.052-0.651,10.171-0.08,15.299,0.679
		c0.343-2.112,0.611-4.199,0.77-6.108c1.096-5.599,1.59-11.881-0.209-14.602c-2.745-4.151-6.781-5.646-10.978-4.65
		c-4.198,0.996-5.005,2.491-4.036,4.484c0,0,2.422,3.155,0.807,9.465C631.175,312.375,630.847,316.281,630.753,318.148z"/>
	<path fill="#97A7A9" d="M631.972,309.275c0,0,1.245-5.48,0.498-8.137s-3.736-5.48,1.91-6.974
		c5.646-1.495,13.035,0.083,13.534,9.714c0,7.223-1.661,14.696-1.661,14.696s1.079-14.115-0.664-18.183
		c-1.744-4.068-5.231-5.231-8.22-4.899c-2.989,0.332-4.816,0.581-3.819,3.321S631.972,309.275,631.972,309.275z"/>
	<path fill="#97A7A9" d="M577.091,277.143c0,0-3.653-5.978,5.978-10.129c9.631-4.151,15.526,0.166,16.024,0.996
		c0,0-6.642-3.404-15.443,0.747C574.849,272.909,577.091,277.143,577.091,277.143z"/>
	<path fill="#97A7A9" d="M549.027,298.73c0,0-5.148-4.733,2.657-11.375s13.617-3.736,14.281-2.408c0,0-4.816-1.578-12.62,4.151
		C545.54,294.828,549.027,298.73,549.027,298.73z"/>
	<path fill="#97A7A9" d="M1020.129,421.944c4.65,0.498,8.303,2.657,7.473,14.447c-0.547,7.774-3.578,14.705-4.715,17.069
		c-3.833,5.238-10.788,12.28-22.518,16.973c-13.628,5.451-27.289,8.303-19.096-6.31c8.192-14.613,9.133-14.336,13.783-17.436
		c0,0-9.521,3.542-16.384,17.27c-6.864,13.727,0.664,19.705,23.248,9.299c7.684-3.541,13.031-7.773,16.747-11.817
		c4.006-3.631,8.519-8.802,10.43-24.384C1031.254,419.453,1020.129,421.944,1020.129,421.944z"/>
	<path fill="#425356" d="M623.752,697.099c0,0-26.569-13.285-14.613-48.267c11.956-34.983,42.51-52.695,81.478-38.525l41.182,8.856
		c0,0,19.484,17.713,18.598,50.481L623.752,697.099z"/>
	<path fill="#132B2A" d="M625.967,697.985c0,0-17.27-9.742-6.642-31.883s20.812-35.868,65.094-27.012
		c44.282,8.856,66.865,12.842,65.98,30.554s-17.27,34.982-72.179,17.27C678.219,686.915,650.764,708.613,625.967,697.985z"/>
	<path fill="#97A7A9" d="M869.365,262.924c-8.045,1.445-16.909-4.046-20.404-11.319c-3.197-6.652-3.664-16.841,1.365-22.81
		l-0.274-0.491c-0.684,0.355-1.361,0.725-2.042,1.086c-1.341,0.93-2.767,1.748-4.239,2.472c-1.221,2.154-5.027,10.548,1.666,22.366
		c7.805,13.783,19.539,11.901,19.539,11.901l4.539-2.934L869.365,262.924z"/>
	<path fill="#627377" d="M608.807,680.826c0,0-12.62-23.58,7.307-48.488c19.927-24.908,31.089-32.282,63.433-25.573
		c31.219,6.476,35.536,8.967,35.536,8.967s-48.14-7.567-62.437-4.318c-14.613,3.321-27.233,15.277-36.865,31.219
		C606.151,658.574,605.818,670.863,608.807,680.826z"/>
	<path fill="#425356" d="M852.357,229.817l-2.241,2.401c0,0-4.069,8.448,0.248,17.415c4.65,8.524,11.513,12.842,16.495,11.624
		c1.993-0.664,2.435-1.218,2.435-1.218l1.328-1.882c0,0,1.771,1.55-0.332,4.317s-10.074,1.771-14.17-1.218
		s-8.303-6.753-10.295-15.831c-2.096-9.546,1.439-15.72,4.207-17.159c2.325-1.439,3.875-0.554,3.875-0.554L852.357,229.817z"/>
	<path fill="#7B8A8D" d="M694.534,322.435c0,0-5.521,3.944-1.37,14.073s9.133,8.552,9.133,8.552l-3.653,0.913
		c0,0-5.231,0.083-8.469-10.462c-2.657-10.046,0.789-12.205,0.789-12.205L694.534,322.435z"/>
	<path fill="#707171" d="M695.267,334.875c-3.227-8.164,0.395-10.761,1.495-11.337c0.304-0.142,0.436-0.209,0.637-0.224
		c0.167-0.013,0.165-0.019,0.33-0.037l0.172-0.064c-0.193-0.28-0.3-0.488-0.524-0.907c-0.812-0.298-1.714-0.257-2.812,0.03
		c-2.998,2.042-4.619,5.6-1.845,13.202c4.262,11.679,10.517,9.521,10.517,9.521l1.585-0.581c0.235-0.193,0.426-0.413,0.593-0.652
		C703.052,343.755,698.313,342.579,695.267,334.875z"/>
	<g>
		<circle opacity="0.1" fill="#FFFFFF" enable-background="new    " cx="743.313" cy="387.571" r="6.483"/>
		<circle fill="#FFFFFF" cx="743.313" cy="387.571" r="1.217"/>
	</g>
	<path fill="#1BAEE5" d="M890.937,380.596c0,0-14.115,16.44-1.162,45.499c9.963,18.598,18.93,20.923,18.93,20.923l-0.996,2.159
		c0,0-11.126-4.317-19.761-22.085c-7.672-15.787-9.133-32.547,1.993-48.322L890.937,380.596z"/>
	<path fill="#919B9E" d="M706.781,359.895c0,0,1.495-11.513,16.938-19.65s22.584-9.797,27.233-9.299l6.476-2.823
		c0,0,4.982-15.609,48.322-18.764c20.923-1.993,37.308-0.664,40.075,0.498c0,0-46.883-1.162-69.799,8.967
		c-15.775,6.974-17.602,14.115-17.602,14.115l-4.65,2.159c0,0-8.469-4.65-28.728,7.805s-16.44,20.978-16.44,20.978
		s-0.934-1.47-1.273-2.269C706.995,360.811,706.781,359.895,706.781,359.895z"/>
	<path fill="#C8C8C8" d="M980.513,623.06c0,0,9.006-49.507-17.347-83.161c0,0,18.107,13.063,21.787,44.946
		S980.513,623.06,980.513,623.06z"/>
	<path fill="#F3F3F3" d="M962.507,616.95c0,0,0-24.244-47.824-56.238l-2.271,2.813C912.412,563.524,954.094,590.159,962.507,616.95z
		"/>
	<path fill="#047499" d="M803.425,594.643c0,0,0.83-1.411,3.57-1.91s17.27-3.313,22.75-1.034s18.511,10.811,18.511,10.811
		s-10.18,2.929-24.184,3.592C810.068,606.765,803.425,594.643,803.425,594.643z"/>
	<path fill="#1BAEE5" d="M793.5,591.867c0,0,13.989,1.207,39.034-4.402l1.255,2.023c0,0-20.289,5.111-40.289,3.97V591.867z"/>
	<polygon fill="#627377" points="677.247,324.469 695.135,358.19 699.431,355.057 680.765,319.93 	"/>
	<path fill="#DDDDDC" d="M696.287,414.328c0,0-36.224,14.172-15.854,66.172h3.1c0,0-20.899-46.259,16.549-65.34L696.287,414.328z"/>
	<path fill="#DDDDDC" d="M684.59,407.05c-0.042-0.473-0.047-0.948-0.012-1.425c-0.098-0.52-0.149-1.053-0.18-1.594
		c-9.849-0.764-36.026,1.644-46.737,46.131l2.554,1.756C640.216,451.919,648.31,407.1,684.59,407.05z"/>
	<path fill="#DDDDDC" d="M670.95,389.699c0.054-0.471,0.144-0.938,0.273-1.398c0.008-0.529,0.065-1.061,0.142-1.597
		c-9.498-2.716-35.629-5.587-55.012,35.863l2.152,2.231C618.506,424.797,635.392,382.499,670.95,389.699z"/>
	<path fill="#DDDDDC" d="M1006.345,401.851c0,0,24.155-14.613,48.155-6.559v-2.906c0,0-19.677-9.735-50.664,6.725L1006.345,401.851z
		"/>
	<path fill="#DDDDDC" d="M1000.368,387.654c0,0,25.748-19.666,49.655-10.206l1.49-2.497c0,0-20.246-12.725-52.074,9.859
		L1000.368,387.654z"/>
	<path fill="#DDDDDC" d="M999.372,374.037c25.399-21.89,47.153-10.077,44.171-11.486l-0.166-2.546c0,0-16.993-10.842-44.891,10.794
		L999.372,374.037z"/>
	<path fill="#DDDDDC" d="M1002.029,362.994c0,0,7.86-21.172,19.595-24.161l-3.985-1.158c0,0-11.458,3.4-18.82,25.729
		L1002.029,362.994z"/>
	<path fill="#DDDDDC" d="M993.643,336.5c0,0-9.993,6.854-4.174,26.2l-2.365,1.513c0,0-6.662-17.713,2.886-27.713H993.643z"/>
	<path fill="#DDDDDC" d="M975.044,367.24c0,0-8.614-8.74-5.722-24.74h-2.767c0,0-3.144,13.683,5.911,26.122L975.044,367.24z"/>
	<path fill="#DDDDDC" d="M647.929,595.252c0,0,24.09-17.934,69.036,4.428l-0.886-3.543c0,0-31.44-21.698-69.432-6.654
		L647.929,595.252z"/>
	<path fill="#DDDDDC" d="M652.169,567.252c0,0,42.557-14.953,64.255,8.627l2.478-3.487c0,0-18.083-22.916-64.845-9.714
		L652.169,567.252z"/>
	<path fill="#DDDDDC" d="M667.591,547.981c0,0,38.636-10.738,50.315,15.609l2.574-1.079c0,0-7.434-27.421-50.365-17.322
		C670.115,545.189,668.878,546.196,667.591,547.981z"/>
	<path fill="#DDDDDC" d="M697.396,533.742c0,0,29.476-2.81,35.353,22.763l2.703-0.886c0,0-3.905-23.806-30.927-22.752
		C704.526,532.868,701.6,532.989,697.396,533.742z"/>
	
		<circle opacity="0.1" fill="#FFFFFF" stroke="#FFFFFF" stroke-miterlimit="10" enable-background="new    " cx="523.798" cy="236.843" r="106.426"/>
	
		<circle opacity="0.1" fill="#FFFFFF" stroke="#FFFFFF" stroke-miterlimit="10" enable-background="new    " cx="523.798" cy="236.843" r="89.059"/>
	<g>
		<g>
			<path fill="#5B5A5D" d="M540.087,305.905c-1.344,3.679-5.417,5.571-9.096,4.227l-59.953-21.916
				c-3.679-1.344-5.571-5.417-4.227-9.096l40.706-111.343c1.344-3.679,5.417-5.571,9.096-4.227l59.953,21.916
				c3.679,1.344,5.571,5.417,4.227,9.096L540.087,305.905L540.087,305.905L540.087,305.905L540.087,305.905z"/>
			<path fill="#737F82" d="M469.78,289.893c-4.378-1.933-6.518-6.973-4.873-11.469l40.706-111.343
				c0.836-2.288,2.513-4.113,4.723-5.14c2.208-1.027,4.685-1.13,6.971-0.294l59.953,21.916c4.761,1.729,7.148,7.011,5.432,11.696
				l-40.706,111.343c-0.836,2.288-2.513,4.113-4.723,5.14c-2.208,1.027-4.685,1.13-6.975,0.294l-59.953-21.916
				C470.151,290.049,469.964,289.975,469.78,289.893C469.78,289.893,469.964,289.975,469.78,289.893L469.78,289.893L469.78,289.893z
				 M576,187.459c-0.1-0.045-0.208-0.087-0.312-0.125l-59.853-21.88c-1.27-0.464-2.643-0.405-3.868,0.163
				c-1.224,0.57-2.155,1.58-2.619,2.85l-40.637,111.156c-0.95,2.6,0.365,5.535,3.014,6.488l59.853,21.88
				c1.27,0.464,2.643,0.405,3.868-0.163c1.224-0.568,2.155-1.58,2.619-2.85l40.637-111.156
				C579.615,191.325,578.43,188.532,576,187.459C576,187.459,578.43,188.532,576,187.459L576,187.459L576,187.459z"/>
			
				<rect id="Rectangle_4_" x="494.264" y="191.808" transform="matrix(0.9392 0.3434 -0.3434 0.9392 112.8734 -165.6472)" fill="#737F82" width="59.771" height="88.142"/>
			<path id="Shape_4_" fill="#3F4040" d="M550.41,189.138c-0.167,0.451-0.589,0.578-1.509,0.243l-15.574-5.694
				c-0.919-0.335-1.164-0.705-0.997-1.158l0.138-0.383c0.167-0.451,0.631-0.698,1.552-0.362l15.574,5.694
				c0.919,0.335,1.12,0.824,0.953,1.278L550.41,189.138L550.41,189.138L550.41,189.138L550.41,189.138z"/>
			<circle id="Oval_3_" fill="#3F4040" cx="505.199" cy="287.353" r="6.458"/>
		</g>
		
			<rect x="508.977" y="198.126" transform="matrix(0.9373 0.3485 -0.3485 0.9373 103.7956 -174.1821)" fill="#E8F6FD" width="54.111" height="6.56"/>
		
			<rect x="501.262" y="206.579" transform="matrix(0.9373 0.3485 -0.3485 0.9373 110.5436 -170.1926)" fill="#E8F6FD" width="54.111" height="31.156"/>
		
			<rect x="493.015" y="232.745" transform="matrix(0.9373 0.3485 -0.3485 0.9373 115.3916 -159.5692)" fill="#E8F6FD" width="16.397" height="16.397"/>
		
			<rect x="510.893" y="242.746" transform="matrix(0.9373 0.3485 -0.3485 0.9373 120.5634 -168.3158)" fill="#E8F6FD" width="34.435" height="16.397"/>
		
			<rect x="485.871" y="251.138" transform="matrix(0.9373 0.3485 -0.3485 0.9373 121.6396 -155.8748)" fill="#E8F6FD" width="16.397" height="18.036"/>
		
			<rect x="503.75" y="261.138" transform="matrix(0.9373 0.3485 -0.3485 0.9373 126.8106 -164.6218)" fill="#E8F6FD" width="34.435" height="18.036"/>
	</g>
</g>
<g>
	
		<circle opacity="0.1" fill="#FFFFFF" stroke="#FFFFFF" stroke-miterlimit="10" enable-background="new    " cx="315.177" cy="515.218" r="200.926"/>
	
		<circle opacity="0.1" fill="#FFFFFF" stroke="#FFFFFF" stroke-miterlimit="10" enable-background="new    " cx="315.177" cy="515.218" r="179.187"/>
	<g>
		<g>
			<path id="Shape_5_" fill="#5B5A5D" d="M415.565,448.839c-0.025-0.023-0.064-0.033-0.095-0.053
				c1.959-5.467,0.079-19.497-48.532-42.581c-52.99-25.158-62.146-14.948-63.729-10.605c-0.077-0.029-0.147-0.08-0.233-0.093
				l-88.538,186.825l0.083-0.004c-2.03,4.799-1.024,18.199,48.89,41.901c53.833,25.562,62.852,13.721,64.361,9.215L415.565,448.839
				L415.565,448.839L415.565,448.839L415.565,448.839z"/>
			
				<rect id="Rectangle_15_" x="260.138" y="423.135" transform="matrix(-0.9033 -0.4289 0.4289 -0.9033 380.5467 1113.4163)" fill="#3F3F3F" width="111.18" height="181.391"/>
			
				<rect id="Rectangle_14_" x="261.394" y="429.263" transform="matrix(-0.9033 -0.4289 0.4289 -0.9033 384.0725 1108.916)" fill="#737F83" width="111.18" height="163.838"/>
			
				<rect id="Rectangle_8_" x="292.763" y="436.355" transform="matrix(-0.9033 -0.4289 0.4289 -0.9033 472.1086 996.6533)" fill="#8C989B" width="111.18" height="17.552"/>
			
				<rect id="Rectangle_7_" x="233.292" y="568.3" transform="matrix(-0.9033 -0.4289 0.4289 -0.9033 220.0434 1197.8873)" fill="#5B5A5C" width="23.404" height="11.7"/>
			
				<rect id="Rectangle_6_" x="265.001" y="583.364" transform="matrix(-0.9033 -0.4289 0.4289 -0.9033 273.9348 1240.1595)" fill="#5B5A5C" width="23.404" height="11.7"/>
			
				<rect id="Rectangle_5_" x="296.713" y="598.411" transform="matrix(-0.9033 -0.4289 0.4289 -0.9033 327.8392 1282.4009)" fill="#5B5A5C" width="23.404" height="11.7"/>
		</g>
		
			<rect x="293.37" y="442.172" transform="matrix(-0.9054 -0.4245 0.4245 -0.9054 389.7355 985.8549)" fill="#E8F6FD" width="22.634" height="14.682"/>
		
			<rect x="275.203" y="475.943" transform="matrix(-0.9054 -0.4245 0.4245 -0.9054 407.593 1084.2821)" fill="#E8F6FD" width="98.755" height="41.588"/>
		
			<rect x="261.349" y="504.184" transform="matrix(-0.9054 -0.4245 0.4245 -0.9054 305.6145 1105.1385)" fill="#E8F6FD" width="29.131" height="28.682"/>
		
			<rect x="292.869" y="518.963" transform="matrix(-0.9054 -0.4245 0.4245 -0.9054 359.399 1146.6785)" fill="#E8F6FD" width="29.131" height="28.682"/>
		
			<rect x="316.527" y="464.292" transform="matrix(-0.9054 -0.4245 0.4245 -0.9054 470.2319 1048.0298)" fill="#E8F6FD" width="70.669" height="14.682"/>
		
			<rect x="324.39" y="533.742" transform="matrix(-0.9054 -0.4245 0.4245 -0.9054 413.186 1188.2212)" fill="#E8F6FD" width="29.131" height="28.682"/>
		
			<rect x="248.588" y="551.768" transform="matrix(-0.9054 -0.4245 0.4245 -0.9054 332.7841 1181.1409)" fill="#E8F6FD" width="98.755" height="3.464"/>
		
			<rect x="244.679" y="560.105" transform="matrix(-0.9054 -0.4245 0.4245 -0.9054 321.7947 1195.3677)" fill="#E8F6FD" width="98.754" height="3.464"/>
		
			<rect x="240.771" y="568.44" transform="matrix(-0.9054 -0.4245 0.4245 -0.9054 310.8107 1209.5902)" fill="#E8F6FD" width="98.755" height="3.464"/>
		
			<rect x="236.862" y="576.777" transform="matrix(-0.9054 -0.4245 0.4245 -0.9054 299.8235 1223.816)" fill="#E8F6FD" width="98.755" height="3.464"/>
	</g>
</g>
</svg>
